<svg width="184" height="32" viewBox="0 0 184 32" fill="none" xmlns="http://www.w3.org/2000/svg">
<path d="M33.0104 14.0327C33.0211 10.6178 35.3943 8.02988 38.7984 7.76679C39.8293 7.68625 40.8709 7.70773 41.9072 7.75068C43.0616 7.79363 43.9475 8.34666 44.5489 9.34534C44.9891 10.0863 45.4455 10.8111 45.8804 11.5575C46.2724 12.234 46.8308 12.5347 47.6147 12.5293C51.996 12.5186 56.3719 12.5239 60.7532 12.5239C64.3721 12.5239 67.0083 15.1656 67.0137 18.7791V25.3081C66.7023 28.3309 64.1841 30.5914 61.1505 30.6558C60.1948 30.6773 59.1639 30.6719 58.2082 30.6558C57.0431 30.6343 56.141 30.1243 55.5289 29.1363C55.0725 28.4061 54.6215 27.6759 54.2027 26.9242C53.7839 26.1833 53.1826 25.8665 52.3289 25.8665C47.9691 25.8826 43.6092 25.8772 39.2494 25.8718C35.7379 25.8718 33.0372 23.1872 33.0157 19.6811V14.0273L33.0104 14.0327ZM42.3475 12.6313C41.8803 12.6313 41.4079 12.6313 40.9407 12.6313C40.4521 12.6313 39.9635 12.6313 39.4749 12.6313C38.3635 12.6313 37.8803 13.1092 37.8749 14.2421C37.8695 15.5146 37.8749 18.0972 37.8749 19.3643C37.8749 20.5187 38.3635 21.0019 39.5125 21.0019C42.6213 21.0019 45.7247 21.0019 48.8335 21.0019C50.0899 21.0019 51.0564 21.5228 51.7114 22.602C52.1571 23.3376 52.6081 24.0678 53.0376 24.8141C53.4242 25.4906 53.988 25.8074 54.7665 25.802C56.6833 25.7913 58.5948 25.802 60.5116 25.802C61.5317 25.802 62.0311 25.3081 62.0364 24.2987C62.0472 23.01 62.0364 20.406 62.0364 19.1173C62.0364 17.8395 61.6015 17.4099 60.3022 17.4099C57.2525 17.4099 54.2081 17.4099 51.1584 17.4099C49.9235 17.4099 48.9785 16.8891 48.3288 15.8421C47.8563 15.0797 47.3999 14.3011 46.9382 13.5333C46.5784 12.932 46.0576 12.6259 45.3381 12.642C44.3395 12.6582 43.3461 12.642 42.3475 12.642V12.6313Z" fill="url(#paint0_linear_1111_27518)"/>
<path d="M0.333374 30.0656V1.07178H11.8289C13.7887 1.07178 15.3941 1.46373 16.6505 2.24764C17.9069 3.03155 18.8411 4.03559 19.4478 5.25978C20.0599 6.48396 20.366 7.74573 20.366 9.04509C20.366 10.6451 19.9848 11.9982 19.2277 13.115C18.4706 14.2318 17.4397 14.9835 16.135 15.37V14.3606C17.9606 14.7794 19.3458 15.6439 20.2908 16.9593C21.2358 18.2748 21.7083 19.7728 21.7083 21.448C21.7083 23.1232 21.3808 24.6695 20.7203 25.9582C20.0653 27.2468 19.0881 28.2562 17.7887 28.9757C16.4948 29.7005 14.8947 30.0656 12.9887 30.0656H0.333374ZM5.24622 12.6478H11.7698C12.4678 12.6478 13.0907 12.5136 13.6437 12.2451C14.1967 11.9767 14.6316 11.5794 14.9538 11.0585C15.2759 10.5377 15.437 9.89342 15.437 9.12562C15.437 8.11621 15.1149 7.27861 14.4706 6.60745C13.8263 5.9363 12.9242 5.59804 11.7698 5.59804H5.24622V12.6425V12.6478ZM5.24622 25.491H12.3927C13.2356 25.491 13.9981 25.3192 14.6692 24.9756C15.3404 24.632 15.8666 24.1487 16.2478 23.5259C16.629 22.9031 16.8223 22.1621 16.8223 21.303C16.8223 20.5245 16.6558 19.8265 16.3176 19.209C15.9793 18.5916 15.4907 18.0976 14.8464 17.7271C14.2021 17.3567 13.4289 17.1741 12.5323 17.1741H5.24622V25.491Z" fill="white"/>
<path d="M25.0748 5.01799V0.566895H29.9286V5.01799H25.0748ZM25.0748 30.0654V8.32006H29.9286V30.0654H25.0748Z" fill="white"/>
<path d="M80.3082 30.6668C78.0639 30.6668 76.1524 30.1675 74.5685 29.1688C72.9846 28.1701 71.7711 26.801 70.9335 25.0721C70.0959 23.3378 69.6664 21.3781 69.6556 19.1928C69.6664 16.9646 70.1067 14.9887 70.9765 13.2652C71.8409 11.5416 73.0758 10.1832 74.6705 9.19529C76.2652 8.20735 78.1659 7.71338 80.3673 7.71338C82.8371 7.71338 84.9257 8.33621 86.6385 9.5765C88.3513 10.8168 89.4681 12.5135 89.9889 14.6612L85.1566 15.9713C84.7808 14.8061 84.1579 13.8934 83.2828 13.2437C82.4076 12.594 81.4143 12.2665 80.3028 12.2665C79.0411 12.2665 77.9994 12.5672 77.1833 13.1631C76.3618 13.7591 75.7605 14.5806 75.3685 15.6276C74.9765 16.6746 74.7833 17.8612 74.7833 19.1928C74.7833 21.2599 75.245 22.9298 76.1739 24.2077C77.0974 25.4855 78.4773 26.1191 80.3028 26.1191C81.5914 26.1191 82.6062 25.8238 83.3525 25.2332C84.0989 24.6426 84.6573 23.7889 85.0331 22.6774L89.9835 23.7835C89.3124 25.9956 88.1365 27.6977 86.4613 28.8896C84.7861 30.0762 82.7297 30.6722 80.3028 30.6722L80.3082 30.6668Z" fill="white"/>
<path d="M103.321 30.6668C101.119 30.6668 99.1863 30.189 97.5218 29.2386C95.8574 28.2829 94.558 26.9621 93.6238 25.2708C92.6895 23.5795 92.2224 21.6358 92.2224 19.429C92.2224 17.0558 92.6788 14.9887 93.5916 13.2383C94.5043 11.4879 95.7715 10.1295 97.3984 9.16307C99.0199 8.19661 100.899 7.71338 103.036 7.71338C105.291 7.71338 107.208 8.23956 108.786 9.29193C110.365 10.3443 111.536 11.8316 112.298 13.7538C113.06 15.6759 113.35 17.9364 113.162 20.5405H108.352V18.7686C108.341 16.4062 107.922 14.6826 107.106 13.5927C106.284 12.5027 104.996 11.9604 103.24 11.9604C101.253 11.9604 99.7769 12.5725 98.8105 13.8021C97.844 15.0316 97.3608 16.825 97.3608 19.1874C97.3608 21.3888 97.844 23.0962 98.8105 24.3043C99.7769 25.5124 101.184 26.1191 103.041 26.1191C104.233 26.1191 105.264 25.856 106.134 25.3245C107.004 24.7929 107.67 24.0251 108.137 23.0211L112.926 24.4707C112.094 26.4305 110.811 27.9554 109.071 29.04C107.331 30.1245 105.415 30.6722 103.321 30.6722V30.6668ZM95.8305 20.5405V16.8733H110.789V20.5405H95.8305Z" fill="white"/>
<path d="M115.954 30.0655V8.32009H120.282V15.0638H120.867V30.0655H115.954ZM131.037 30.0655V19.5955C131.037 18.9082 130.988 18.1512 130.897 17.3189C130.806 16.4867 130.586 15.6867 130.242 14.9135C129.898 14.1403 129.388 13.5068 128.712 13.0128C128.035 12.5188 127.117 12.2665 125.963 12.2665C125.345 12.2665 124.733 12.3685 124.132 12.5672C123.53 12.7658 122.983 13.1148 122.489 13.6034C121.995 14.092 121.608 14.7632 121.313 15.6169C121.018 16.4706 120.867 17.5605 120.867 18.8867L117.989 17.6572C117.989 15.8048 118.349 14.1242 119.069 12.6208C119.788 11.1175 120.846 9.92013 122.242 9.02883C123.638 8.13754 125.356 7.69189 127.396 7.69189C129.007 7.69189 130.339 7.96036 131.386 8.49728C132.433 9.0342 133.265 9.71609 133.882 10.5483C134.5 11.3806 134.956 12.2665 135.251 13.2061C135.547 14.1457 135.74 15.037 135.826 15.8746C135.912 16.7122 135.955 17.3941 135.955 17.9203V30.0601H131.042L131.037 30.0655Z" fill="white"/>
<path d="M137.158 12.127V8.32017H152.32V12.127H137.158ZM152.32 30.0656C150.887 30.334 149.48 30.4521 148.1 30.4199C146.72 30.3877 145.491 30.13 144.406 29.6575C143.316 29.1796 142.495 28.4279 141.931 27.3917C141.432 26.4521 141.174 25.491 141.147 24.5138C141.12 23.5366 141.104 22.4251 141.104 21.1902V2.27979H145.936V20.9057C145.936 21.7755 145.947 22.5433 145.968 23.2037C145.99 23.8641 146.124 24.3957 146.382 24.8145C146.865 25.6198 147.638 26.0709 148.696 26.1621C149.754 26.2588 150.962 26.2051 152.32 26.0011V30.0709V30.0656Z" fill="white"/>
<path d="M156.342 5.01799V0.566895H161.196V5.01799H156.342ZM156.342 30.0654V8.32006H161.196V30.0654H156.342Z" fill="white"/>
<path d="M174.017 30.6668C171.332 30.6668 169.153 30.0655 167.472 28.852C165.791 27.644 164.771 25.9473 164.411 23.7566L169.362 22.9942C169.614 24.0681 170.183 24.9164 171.053 25.5285C171.923 26.146 173.024 26.452 174.355 26.452C175.52 26.452 176.428 26.2211 177.061 25.7594C177.7 25.2976 178.017 24.664 178.017 23.8587C178.017 23.3647 177.899 22.962 177.663 22.6613C177.427 22.3606 176.916 22.0653 176.122 21.7861C175.327 21.5016 174.114 21.1472 172.476 20.7177C170.651 20.2344 169.201 19.7136 168.127 19.1552C167.053 18.5968 166.28 17.9364 165.813 17.174C165.346 16.4115 165.11 15.4827 165.11 14.3981C165.11 13.0397 165.464 11.8584 166.178 10.8544C166.892 9.85033 167.88 9.07179 169.158 8.5295C170.436 7.98721 171.939 7.71338 173.668 7.71338C175.397 7.71338 176.857 7.97647 178.167 8.49729C179.478 9.0181 180.535 9.76443 181.341 10.7309C182.146 11.6973 182.64 12.8303 182.833 14.135L177.883 15.0209C177.759 14.0974 177.341 13.3618 176.627 12.8249C175.907 12.288 174.951 11.9873 173.759 11.9175C172.616 11.8531 171.698 12.0195 171 12.4329C170.302 12.841 169.953 13.4155 169.953 14.1565C169.953 14.5753 170.092 14.9296 170.377 15.2249C170.661 15.5202 171.225 15.8155 172.079 16.1109C172.932 16.4062 174.205 16.7659 175.896 17.1954C177.625 17.6411 179.016 18.1458 180.052 18.7149C181.094 19.2841 181.845 19.966 182.307 20.7606C182.769 21.5553 183 22.511 183 23.6385C183 25.8292 182.205 27.5473 180.616 28.793C179.027 30.044 176.825 30.6668 174.022 30.6668H174.017Z" fill="white"/>
<defs>
<linearGradient id="paint0_linear_1111_27518" x1="33.3333" y1="7.99984" x2="66.6666" y2="31.9998" gradientUnits="userSpaceOnUse">
<stop stop-color="#1ED760"/>
<stop offset="1" stop-color="#0A8270"/>
</linearGradient>
</defs>
</svg>
