{
	"asset":{
		"generator":"Khronos glTF Blender I/O v4.2.57",
		"version":"2.0"
	},
	"extensionsUsed":[
		"KHR_materials_specular",
		"KHR_materials_ior"
	],
	"scene":0,
	"scenes":[
		{
			"name":"Scene",
			"nodes":[
				4
			]
		}
	],
	"nodes":[
		{
			"mesh":0,
			"name":"Object_2"
		},
		{
			"mesh":1,
			"name":"Object_3.001",
			"translation":[
				0,
				-6.974353163968772e-05,
				230.2174835205078
			]
		},
		{
			"mesh":2,
			"name":"Object_4"
		},
		{
			"children":[
				0,
				1,
				2
			],
			"name":"GFP.obj.cleaner.materialmerger.gles"
		},
		{
			"children":[
				3
			],
			"name":"Sketchfab_model.001",
			"rotation":[
				-0.70710688829422,
				0,
				0,
				0.7071066498756409
			],
			"scale":[
				0.004999999888241291,
				0.004999999888241291,
				0.004999999888241291
			]
		}
	],
	"materials":[
		{
			"doubleSided":true,
			"extensions":{
				"KHR_materials_specular":{
					"specularColorFactor":[
						0.013787887990474701,
						0.013787887990474701,
						0.013787887990474701
					]
				},
				"KHR_materials_ior":{
					"ior":1000
				}
			},
			"name":"Material__47",
			"pbrMetallicRoughness":{
				"baseColorFactor":[
					0.05490000173449516,
					0.7882000207901001,
					0,
					1
				],
				"metallicFactor":0,
				"roughnessFactor":0.25621214509010315
			}
		},
		{
			"doubleSided":true,
			"extensions":{
				"KHR_materials_specular":{
					"specularColorFactor":[
						0.0,
						0.0,
						0.0
					]
				},
				"KHR_materials_ior":{
					"ior":1000
				}
			},
			"name":"Material__48",
			"pbrMetallicRoughness":{
				"baseColorFactor":[
					0,
					0.05231887847185135,
					0.5463839769363403,
					1
				],
				"metallicFactor":0
			}
		}
	],
	"meshes":[
		{
			"name":"Object_0",
			"primitives":[
				{
					"attributes":{
						"POSITION":0,
						"NORMAL":1
					},
					"indices":2,
					"material":0
				}
			]
		},
		{
			"name":"Object_1",
			"primitives":[
				{
					"attributes":{
						"POSITION":3,
						"NORMAL":4
					},
					"indices":5,
					"material":0
				}
			]
		},
		{
			"name":"Object_2",
			"primitives":[
				{
					"attributes":{
						"POSITION":6,
						"NORMAL":7
					},
					"indices":8,
					"material":1
				}
			]
		}
	],
	"accessors":[
		{
			"bufferView":0,
			"componentType":5126,
			"count":3,
			"max":[
				-2.819200038909912,
				-34.13209915161133,
				-76.4583969116211
			],
			"min":[
				-6.411799907684326,
				-35.78450012207031,
				-76.84819793701172
			],
			"type":"VEC3"
		},
		{
			"bufferView":1,
			"componentType":5126,
			"count":3,
			"type":"VEC3"
		},
		{
			"bufferView":2,
			"componentType":5123,
			"count":3,
			"type":"SCALAR"
		},
		{
			"bufferView":3,
			"componentType":5126,
			"count":57406,
			"max":[
				226.30850219726562,
				172.75709533691406,
				292.52178955078125
			],
			"min":[
				-226.30850219726562,
				-172.75709533691406,
				-292.52178955078125
			],
			"type":"VEC3"
		},
		{
			"bufferView":4,
			"componentType":5126,
			"count":57406,
			"type":"VEC3"
		},
		{
			"bufferView":5,
			"componentType":5123,
			"count":344241,
			"type":"SCALAR"
		},
		{
			"bufferView":6,
			"componentType":5126,
			"count":12783,
			"max":[
				43.66310119628906,
				89.18879699707031,
				27.449399948120117
			],
			"min":[
				-51.542999267578125,
				-55.62120056152344,
				-64.30490112304688
			],
			"type":"VEC3"
		},
		{
			"bufferView":7,
			"componentType":5126,
			"count":12783,
			"type":"VEC3"
		},
		{
			"bufferView":8,
			"componentType":5123,
			"count":13968,
			"type":"SCALAR"
		}
	],
	"bufferViews":[
		{
			"buffer":0,
			"byteLength":36,
			"byteOffset":0,
			"target":34962
		},
		{
			"buffer":0,
			"byteLength":36,
			"byteOffset":36,
			"target":34962
		},
		{
			"buffer":0,
			"byteLength":6,
			"byteOffset":72,
			"target":34963
		},
		{
			"buffer":0,
			"byteLength":688872,
			"byteOffset":80,
			"target":34962
		},
		{
			"buffer":0,
			"byteLength":688872,
			"byteOffset":688952,
			"target":34962
		},
		{
			"buffer":0,
			"byteLength":688482,
			"byteOffset":1377824,
			"target":34963
		},
		{
			"buffer":0,
			"byteLength":153396,
			"byteOffset":2066308,
			"target":34962
		},
		{
			"buffer":0,
			"byteLength":153396,
			"byteOffset":2219704,
			"target":34962
		},
		{
			"buffer":0,
			"byteLength":27936,
			"byteOffset":2373100,
			"target":34963
		}
	],
	"buffers":[
		{
			"byteLength":2401036,
			"uri":"scene.bin"
		}
	]
}
